HIERARCHY
ROOT pelvis
{
  OFFSET 0 100 0
  CHANNELS 6 Xposition Yposition Zposition Zrotation Xrotation Yrotation
  JOINT pelvis_right_femur
  {
    OFFSET -10.78128 -3.44521 -0.5502486
    CHANNELS 3 Zrotation Xrotation Yrotation
    JOINT right_femur_tibia
    {
      OFFSET -0.8047443 -44.0398 -0.1307829
      CHANNELS 3 Zrotation Xrotation Yrotation
      JOINT right_tibia_foot
      {
        OFFSET 3.006224 -47.83518 -5
        CHANNELS 3 Zrotation Xrotation Yrotation
        End Site
        {
          OFFSET 0 -5 15
        }
      }
    }
  }
  JOINT pelvis_left_femur
  {
    OFFSET 10.78128 -3.44521 -0.5502486
    CHANNELS 3 Zrotation Xrotation Yrotation
    JOINT left_femur_tibia
    {
      OFFSET 0.8047443 -44.0398 -0.1307829
      CHANNELS 3 Zrotation Xrotation Yrotation
      JOINT left_tibia_foot
      {
        OFFSET -4.370144 -48.10324 -4.275266
        CHANNELS 3 Zrotation Xrotation Yrotation
        End Site
        {
          OFFSET 0 -5 15
        }
      }
    }
  }
  JOINT pelvis_spine1
  {
    OFFSET 0 6.468898 -3.129235
    CHANNELS 3 Zrotation Xrotation Yrotation
    JOINT spine1
    {
      OFFSET 0 23.15396 4.99043
      CHANNELS 3 Zrotation Xrotation Yrotation
      JOINT spine2
      {
        OFFSET 0 20.79997 -5.064912
        CHANNELS 3 Zrotation Xrotation Yrotation
        JOINT neck
        {
          OFFSET 0 14.38658 9.616178
          CHANNELS 3 Zrotation Xrotation Yrotation
          End Site
          {
            OFFSET 0 20 0
          }
        }
      }
      JOINT right_manubrium
      {
        OFFSET -5.722621 16.35077 3.967754
        CHANNELS 3 Zrotation Xrotation Yrotation
        JOINT right_clavicle
        {
          OFFSET -13.16364 1.694482 -4.693211
          CHANNELS 3 Zrotation Xrotation Yrotation
          JOINT right_humerus
          {
            OFFSET -28.5034 -0.3100689 -2.792744
            CHANNELS 3 Zrotation Xrotation Yrotation
            JOINT right_radius
            {
              OFFSET -25.15693 0.02248979 -1.271978
              CHANNELS 3 Zrotation Xrotation Yrotation
              End Site
              {
                OFFSET -15 0 0
              }
            }
          }
        }
      }
      JOINT left_manubrium
      {
        OFFSET 5.722621 16.35077 3.967754
        CHANNELS 3 Zrotation Xrotation Yrotation
        JOINT left_clavicle
        {
          OFFSET 13.16364 1.694482 -4.693211
          CHANNELS 3 Zrotation Xrotation Yrotation
          JOINT left_humerus
          {
            OFFSET 29.39168 -1.063119 -2.237045
            CHANNELS 3 Zrotation Xrotation Yrotation
            JOINT left_radius
            {
              OFFSET 24.59957 -0.9528479 0.9047498
              CHANNELS 3 Zrotation Xrotation Yrotation
              End Site
              {
                OFFSET 15 -0 -0
              }
            }
          }
        }
      }
    }
  }
}
MOTION
Frames: 21
Frame Time: 0.0416666666667
0 103.5113 0 2.252539 -1.183481 0.2946149 1.108871 -9.570265 8.644728 -0 33.72534 -0 -5.23674 -17.94463 -2.158866 -8.10145 9.905818 -23.37675 -0 5.567767 -0 7.543694 -15.97716 26.42167 -4.354503 -5.115913 5.010409 1.99957 9.223788 -7.710951 0.8199959 22.82825 7.168704 3.248854 -23.03543 8.772963 6.353256 -19.71776 11.5706 86.34115 35.96535 -19.80884 -0 0 16.18607 -7.62892 8.275805 4.641973 5.498209 -19.47839 -1.694554 -94.77081 29.73678 22.8932 0 0 -15.98776 3.475819 17.86712 9.565879
0.3507218 103.8416 1.473868 2.235606 -1.06554 0.5317428 1.12255 -9.514941 8.408392 -0 32.2629 -0 -5.230899 -17.58845 -1.873342 -8.082212 9.668522 -23.03531 -0 6.408274 -0 7.170259 -15.88695 25.98599 -4.313681 -5.048443 5.052188 2.032223 9.21733 -7.673332 0.8100804 22.77107 7.174884 3.263546 -23.03324 8.736457 6.304675 -19.59929 11.56124 86.37725 35.97838 -19.8678 -0 0 15.98507 -7.770846 8.367998 4.715912 5.545942 -19.50989 -1.69629 -94.66215 29.67817 22.71825 0 0 -16.20382 3.473817 17.71437 9.564858
0.7203394 104.1685 3.122065 2.215724 -0.9272558 0.7591156 1.127593 -9.341556 8.092567 -0 30.32375 -0 -5.224483 -17.13625 -1.490225 -8.055032 9.280894 -22.55957 -0 7.588785 -0 6.659038 -15.72163 25.39674 -4.257578 -4.960022 5.116367 2.068652 9.212681 -7.61695 0.7941201 22.7011 7.179931 3.280168 -23.01648 8.680215 6.237964 -19.44733 11.55092 86.41531 35.99461 -19.92391 -0 0 15.727 -7.983418 8.498544 4.828933 5.600326 -19.54511 -1.700016 -94.52143 29.59254 22.50125 0 0 -16.46722 3.461084 17.50238 9.573475
1.112947 104.4931 4.978977 2.199066 -0.7900832 0.9745935 1.114351 -8.985473 7.720802 -0 28.06158 -0 -5.218329 -16.63983 -1.035993 -8.019585 8.716774 -21.96985 -0 9.067953 -0 6.039227 -15.45845 24.69305 -4.18927 -4.858517 5.204733 2.100544 9.213108 -7.541151 0.7711602 22.62861 7.181155 3.295321 -22.97567 8.602702 6.156855 -19.27752 11.54206 86.44457 36.01259 -19.95569 -0 0 15.43851 -8.268722 8.663225 4.983727 5.650204 -19.57605 -1.706428 -94.36236 29.48115 22.27058 0 0 -16.73917 3.430831 17.24063 9.598826
1.532169 104.8182 7.069026 2.19137 -0.6726846 1.175781 1.075654 -8.390245 7.314305 -0 25.61136 -0 -5.212382 -16.14461 -0.5336791 -7.974104 7.953545 -21.2844 -0 10.80922 -0 5.337785 -15.07776 23.91066 -4.111501 -4.75082 5.318819 2.120614 9.221421 -7.445385 0.7403662 22.5626 7.176239 3.306115 -22.90259 8.502649 6.06465 -19.10352 11.53671 86.45562 36.03119 -19.94443 -0 0 15.14287 -8.628559 8.858039 5.18273 5.685838 -19.59571 -1.716135 -94.19682 29.34543 22.05098 0 0 -16.98578 3.377271 16.93746 9.64698
1.981024 105.1481 9.40824 2.197213 -0.5894938 1.360082 1.00779 -7.515906 6.89143 -0 23.08456 -0 -5.205864 -15.68658 -0.002495555 -7.915391 6.977431 -20.51984 -0 12.77772 -0 4.579331 -14.56643 23.08113 -4.026644 -4.642517 5.459294 2.12331 9.239689 -7.329653 0.7012393 22.51007 7.163442 3.310409 -22.79135 8.379541 5.964128 -18.93638 11.5364 86.44134 36.04933 -19.8761 -0 0 14.85885 -9.063001 9.078878 5.427223 5.699757 -19.59877 -1.729598 -94.03429 29.18702 21.86197 0 0 -17.18058 3.296466 16.60037 9.722102
2.461835 105.4886 12.00585 2.219614 -0.5501483 1.524841 0.9104884 -6.342875 6.467445 -0 20.56774 -0 -5.197578 -15.29102 0.5421137 -7.839201 5.786121 -19.69147 -0 14.93835 -0 3.78587 -13.9195 22.23129 -3.936692 -4.537765 5.625658 2.105115 9.269133 -7.194728 0.6537255 22.47569 7.141688 3.306906 -22.63891 8.233858 5.857532 -18.78431 11.54205 86.39745 36.06582 -19.74221 -0 0 14.60028 -9.569677 9.321383 5.716877 5.687124 -19.58191 -1.747103 -93.88158 29.00785 21.71718 0 0 -17.30559 3.186659 16.23609 9.826106
2.976161 105.8463 14.86574 2.259981 -0.5597714 1.667525 0.7861358 -4.871568 6.054589 -0 18.12474 -0 -5.18616 -14.97289 1.08802 -7.740864 4.388828 -18.81325 -0 17.25496 -0 2.976578 -13.14002 21.38321 -3.843313 -4.439403 5.816208 2.064463 9.310162 -7.042174 0.5982207 22.46189 7.110547 3.295107 -22.44496 8.067073 5.746629 -18.65285 11.55403 86.32236 36.07934 -19.53966 -0 0 14.37632 -10.1438 9.581001 6.049708 5.645627 -19.54371 -1.768776 -93.74301 28.81008 21.62457 0 0 -17.35093 3.04813 15.85075 9.958808
3.52478 106.2288 17.98769 2.318295 -0.619724 1.785902 0.6386857 -3.119792 5.662333 -0 15.80108 -0 -5.170167 -14.73795 1.625676 -7.615995 2.805173 -17.89783 -0 19.68975 -0 2.16781 -12.23816 20.55447 -3.747963 -4.349203 6.028145 2.001414 9.362507 -6.874287 0.5355243 22.46918 7.070171 3.275189 -22.21147 7.881534 5.632821 -18.54518 11.57221 86.21698 36.08833 -19.27003 -0 0 14.19216 -10.77863 9.853136 6.422273 5.575104 -19.48437 -1.794651 -93.62067 28.59599 21.58713 0 0 -17.31355 2.882755 15.44985 10.11837
4.107698 106.6437 21.36834 2.39336 -0.7284199 1.878225 0.4726596 -1.120207 5.297757 -0 13.62963 -0 -5.147958 -14.58383 2.147211 -7.461209 1.064394 -16.95684 -0 22.20206 -0 1.373413 -11.23035 19.75884 -3.652063 -4.268171 6.257607 1.917316 9.425371 -6.694077 0.4668024 22.49648 7.021246 3.247886 -21.94215 7.680363 5.517277 -18.46248 11.59603 86.08435 36.09105 -18.93893 -0 0 14.04972 -11.46604 10.13335 6.829895 5.477147 -19.40537 -1.824793 -93.51467 28.368 21.60338 0 0 -17.19584 2.693517 15.03835 10.30181
4.724215 107.0987 25.00201 2.483037 -0.8819604 1.943448 0.2924139 1.08081 4.965966 -0 11.63646 -0 -5.117401 -14.50021 2.645432 -7.27488 -0.794251 -16.00143 -0 24.74598 -0 0.6053178 -10.1391 19.00713 -3.557225 -4.196838 6.499561 1.814528 9.497532 -6.50536 0.3935928 22.54129 6.964998 3.214402 -21.64206 7.46745 5.401074 -18.40411 11.62451 85.92962 36.08545 -18.55561 -0 0 13.9482 -12.19705 10.41756 7.26678 5.354823 -19.30926 -1.859459 -93.42313 28.12867 21.66764 0 0 -17.00465 2.484081 14.62063 10.50546
5.373036 107.601 28.88131 2.584426 -1.074527 1.981497 0.1016915 3.422864 4.670485 -0 9.846304 -0 -5.075505 -14.46846 3.112822 -7.058001 -2.720064 -15.04319 -0 27.26734 -0 -0.1257532 -8.993486 18.30794 -3.465509 -4.135517 6.747564 1.696261 9.577422 -6.312957 0.3178492 22.59982 6.903247 3.176377 -21.31737 7.247538 5.285337 -18.36767 11.65621 85.76011 36.06909 -18.13303 -0 0 13.88437 -12.96207 10.70215 7.72602 5.212539 -19.19949 -1.899284 -93.3421 27.88081 21.76981 0 0 -16.75062 2.258482 14.20055 10.72528
6.052449 108.1571 32.99764 2.694023 -1.298644 1.99359 -0.09658783 5.831296 4.413569 -0 8.28655 -0 -5.018186 -14.46131 3.540797 -6.815047 -4.649903 -14.09506 -0 29.70139 -0 -0.8097206 -7.829475 17.66832 -3.379604 -4.084498 6.993585 1.566462 9.663178 -6.122832 0.2419713 22.66697 6.838445 3.135847 -20.97517 7.026275 5.171334 -18.34905 11.68924 85.5854 36.03915 -17.68785 -0 0 13.85285 -13.75122 10.98417 8.199599 5.055933 -19.0804 -1.945424 -93.2655 27.62751 21.89531 0 0 -16.44774 2.020919 13.78146 10.95708
6.760552 108.7724 37.3416 2.807938 -1.545527 1.98253 -0.3003415 8.219554 4.19634 -0 6.988285 -0 -4.940425 -14.44409 3.919566 -6.554533 -6.509983 -13.17193 -0 31.97382 -0 -1.437049 -6.688923 17.09388 -3.302796 -4.044133 7.228205 1.429654 9.752731 -5.941965 0.1687351 22.73661 6.773584 3.095126 -20.62327 6.810059 5.060486 -18.34272 11.72132 85.41694 35.99249 -17.23983 -0 0 13.84654 -14.55449 11.26133 8.678593 4.89163 -18.95696 -1.99955 -93.18539 27.37218 22.0258 0 0 -16.1126 1.775597 13.36624 11.19669
7.495506 109.4511 41.90333 2.922215 -1.805711 1.952855 -0.5081642 10.49608 4.018788 -0 5.983552 -0 -4.836937 -14.37833 4.238836 -6.28876 -8.222176 -12.29019 -0 34.00669 -0 -1.999259 -5.616209 16.58852 -3.238643 -4.014806 7.441416 1.290618 9.843965 -5.77777 0.1010629 22.80209 6.711909 3.056576 -20.26966 6.605525 4.95426 -18.34232 11.74997 85.26699 35.92604 -16.8101 -0 0 13.8573 -15.36207 11.53203 9.15374 4.7267 -18.83441 -2.063635 -93.09299 27.11825 22.14104 0 0 -15.76308 1.526572 12.9574 11.44009
8.25579 110.1959 46.67278 3.033228 -2.06993 1.910754 -0.7190278 12.57482 3.879699 -0 5.299804 -0 -4.70315 -14.22739 4.489186 -6.03248 -9.713774 -11.4664 -0 35.72831 -0 -2.489812 -4.653007 16.15398 -3.190424 -3.996797 7.623881 1.153948 9.934915 -5.637178 0.04166948 22.85706 6.656485 3.022296 -19.92194 6.418779 4.853983 -18.34161 11.7729 85.14698 35.83719 -16.41864 -0 0 13.87714 -16.16477 11.79526 9.616277 4.567876 -18.71775 -2.139573 -92.98003 26.86888 22.22184 0 0 -15.41638 1.277579 12.55709 11.6836
9.04042 111.0078 51.63979 3.138026 -2.32998 1.863732 -0.9319231 14.38544 3.776666 -0 4.954261 -0 -4.536029 -13.96192 4.663477 -5.80078 -10.92697 -10.7154 -0 37.08295 -0 -2.904859 -3.83313 15.78961 -3.160593 -3.990137 7.768179 1.023622 10.02396 -5.525709 -0.007277984 22.89626 6.60977 2.993851 -19.58662 6.254658 4.76065 -18.3354 11.78825 85.06601 35.72426 -16.08172 -0 0 13.89912 -16.95448 12.05045 10.05877 4.420804 -18.61118 -2.22878 -92.84013 26.62659 22.25272 0 0 -15.08724 1.031888 12.16719 11.92394
9.849109 111.8867 56.79429 3.234526 -2.579283 1.820104 -1.14555 15.87949 3.70624 -0 4.950621 -0 -4.334396 -13.56322 4.757705 -5.606893 -11.82444 -10.04858 -0 38.0366 -0 -3.243484 -3.179384 15.49261 -3.150444 -3.994501 7.869541 0.9027212 10.10988 -5.446927 -0.04435476 22.91599 6.57336 2.972149 -19.26873 6.116316 4.674821 -18.32005 11.79487 85.02986 35.58657 -15.81046 -0 0 13.91809 -17.72437 12.29731 10.47562 4.289593 -18.51779 -2.331939 -92.66957 26.39303 22.22364 0 0 -14.7868 0.792214 11.78934 12.15841
10.68237 112.8309 62.12624 3.321506 -2.813046 1.788442 -1.358121 17.03144 3.664213 -0 5.278587 -0 -4.098754 -13.02406 4.77114 -5.460565 -12.39005 -9.472855 -0 38.57795 -0 -3.507467 -2.70297 15.25864 -3.160045 -4.009186 7.925974 0.7933652 10.19191 -5.40233 -0.06889228 22.91424 6.547956 2.957463 -18.97176 6.0052 4.596596 -18.29361 11.79225 85.04089 35.42435 -15.61053 -0 0 13.93077 -18.46897 12.53572 10.86311 4.176749 -18.43955 -2.448944 -92.46734 26.16894 22.13015 0 0 -14.52246 0.5607142 11.42495 12.38478
11.54154 113.8377 67.62576 3.398441 -3.028117 1.777019 -1.567243 17.83602 3.645943 -0 5.914896 -0 -3.830828 -12.34764 4.705963 -5.367169 -12.62631 -8.990383 -0 38.7161 -0 -3.700894 -2.404666 15.08237 -3.1883 -4.03312 7.937953 0.6968042 10.26956 -5.391562 -0.08085944 22.8905 6.533456 2.949544 -18.69781 5.921283 4.525663 -18.25561 11.78052 85.09842 35.23849 -15.48286 -0 0 13.93558 -19.18401 12.76562 11.21913 4.083404 -18.37738 -2.578954 -92.23481 25.95433 21.9726 0 0 -14.29842 0.3390539 11.07521 12.60133
12.42867 114.9037 73.28313 3.465232 -3.222698 1.793261 -1.76981 18.30421 3.646677 -0 6.824083 -0 -3.533065 -11.54622 4.566766 -5.327443 -12.55072 -8.598721 -0 38.47766 -0 -3.829919 -2.276602 14.95803 -3.232998 -4.064872 7.907992 0.613595 10.34255 -5.412702 -0.08068345 22.84543 6.529105 2.947748 -18.4478 5.863411 4.461326 -18.20664 11.76027 85.19929 35.03014 -15.42469 -0 0 13.93223 -19.8661 12.98699 11.54271 4.009696 -18.33146 -2.720487 -91.97511 25.74864 21.75495 0 0 -14.11668 0.1285173 10.74103 12.80667
